<?xml version="1.0" standalone="no"?>
<!DOCTYPE svg PUBLIC "-//W3C//DTD SVG 20010904//EN"
 "http://www.w3.org/TR/2001/REC-SVG-20010904/DTD/svg10.dtd">
<svg version="1.0" xmlns="http://www.w3.org/2000/svg"
 width="95.000000pt" height="75.000000pt" viewBox="0 0 95.000000 75.000000"
 preserveAspectRatio="xMidYMid meet">
<metadata>
Created by potrace 1.15, written by Peter Selinger 2001-2017
</metadata>
<g transform="translate(0.000000,75.000000) scale(0.100000,-0.100000)"
fill="#000000" stroke="none">
<path d="M765 720 l-70 -29 -255 -1 c-149 0 -271 -5 -294 -11 -50 -14 -123
-82 -137 -128 -6 -21 -9 -101 -7 -198 3 -161 3 -161 33 -203 24 -34 51 -56 93
-77 2 0 -4 -15 -13 -33 -9 -18 -14 -34 -11 -37 3 -3 36 7 73 23 l68 29 285 5
c279 5 286 5 324 29 21 13 51 45 67 70 l29 45 0 170 c0 162 -1 171 -25 212
-14 23 -42 52 -62 65 -21 12 -39 24 -41 25 -2 1 4 16 12 33 27 51 27 51 -69
11z m73 -144 l37 -34 3 -151 c3 -125 1 -156 -14 -186 -29 -63 -37 -64 -386
-67 -349 -3 -347 -4 -388 65 -17 28 -20 51 -20 173 0 130 2 144 23 175 39 58
42 59 390 59 l317 0 38 -34z"/>
<path d="M406 530 c-112 -35 -142 -196 -52 -280 21 -19 40 -25 89 -28 106 -6
161 49 161 160 1 61 -16 93 -65 131 -30 22 -92 30 -133 17z m98 -79 c43 -48
24 -154 -30 -167 -55 -14 -94 28 -94 100 0 72 81 115 124 67z"/>
<path d="M160 500 c0 -16 5 -30 10 -30 6 0 10 -38 10 -95 0 -57 -4 -95 -10
-95 -5 0 -10 -13 -10 -30 l0 -30 65 0 65 0 0 30 c0 20 -5 30 -15 30 -12 0 -15
17 -15 95 0 78 3 95 15 95 10 0 15 10 15 30 l0 30 -65 0 -65 0 0 -30z"/>
<path d="M650 375 l0 -155 95 0 95 0 0 30 0 30 -60 0 -60 0 0 125 0 125 -35 0
-35 0 0 -155z"/>
</g>
</svg>
